<?xml version="1.0" encoding="utf-8"?>
<svg version="1.1" id="Layer_1" xmlns="http://www.w3.org/2000/svg" xmlns:xlink="http://www.w3.org/1999/xlink" x="0px" y="0px"
	 viewBox="0 0 170 170" enable-background="new 0 0 170 170" xml:space="preserve">
<g>
	<path fill="#FFFFFF" d="M143.6,76.9v8.7C160.7,73.3,145.1,76.5,143.6,76.9z"/>
	<path fill="#FFFFFF" d="M85,0C38,0,0,38,0,85s38,85,85,85s85-38,85-85S132,0,85,0z M143.6,96v15.3c-1.1,0.6-2.5,1.5-4.3,2.6V78
		c0,0-14.7,10.4-34.4,10.4s0,9.1,0,9.1v31.9c-6.6,2.1-13.4,3.4-19.8,3.4c-40.6,0-54.6-6-54.6-6s14.4,12.7,54.6,12.7
		c33.4,0,52.9-11.3,58.7-15.3v3.8c0,10-26.3,18.3-58.7,18.3s-58.7-8.3-58.7-18.3l0.2-31.7c-7.2-5.3-39.5-30.4,0.2-25.5
		c-3.8-2.5-5.9-5.3-5.9-8.3c0-9.3,20.4-17,48-19.3c-3.2-2.6-5.5-5.9-5.5-10.2c0-10.2,18.7-8.7,20.4-15.1c1.7-6.6-0.6-8.5-3-11.7
		c2.8,1.9,7.2,4,7.2,11.7s-15.1,8.5-15.1,14.7c0,5.5,8.3,7.4,16.6,10c33.4,0.8,59.9,9.4,59.9,20c0,3-2.1,5.7-5.7,8.1
		C182.1,65.9,151.3,90.1,143.6,96z"/>
	<path fill="#FFFFFF" d="M104.5,51.9c0.8,1.3,1.1,2.8,1.1,4.5c0,13.2-24.7,11.7-25.7,15.1c-1.7,5.5,4.9,6,5.7,6.2
		c-0.9,0-12.7-0.8-12.8-5.9c-0.2-5.9,16.6-7,16.6-14.9c0-2.5-2.6-4.3-6.2-6.2c-31.5,0.4-56.9,8.3-56.9,18.1c0,0.6,0,0.9,0.2,1.5
		c10.2,7,32.5,11.7,58.4,11.7s48.4-4.7,58.4-11.7c0.2-0.6,0.2-0.9,0.2-1.5C143.7,61.2,127.3,54.6,104.5,51.9z"/>
	<path fill="#FFFFFF" d="M26.3,76.9L26.3,76.9L26.3,76.9c-0.4,0-0.9-0.2-1.9-0.4l0,0l0,0c-4-0.6-12.3-1.1,0.8,8.5
		c0.4,0.4,0.8,0.6,1.3,0.9l0,0c5.3,0.8,21.5,2.5,58.6,2.5C47.8,88.2,31.4,80.1,26.3,76.9L26.3,76.9z"/>
</g>
</svg>
